<?xml version="1.0" encoding="UTF-8" standalone="no"?>
<!-- Created with Inkscape (http://www.inkscape.org/) -->

<svg
   width="800"
   height="800"
   viewBox="0 0 211.66667 211.66667"
   version="1.1"
   id="svg1"
   xml:space="preserve"
   inkscape:export-filename="bitmap.svg"
   inkscape:export-xdpi="96"
   inkscape:export-ydpi="96"
   xmlns:inkscape="http://www.inkscape.org/namespaces/inkscape"
   xmlns:sodipodi="http://sodipodi.sourceforge.net/DTD/sodipodi-0.dtd"
   xmlns="http://www.w3.org/2000/svg"
   xmlns:svg="http://www.w3.org/2000/svg"><sodipodi:namedview
     id="namedview1"
     pagecolor="#ffffff"
     bordercolor="#000000"
     borderopacity="0.25"
     inkscape:showpageshadow="2"
     inkscape:pageopacity="0.0"
     inkscape:pagecheckerboard="0"
     inkscape:deskcolor="#d1d1d1"
     inkscape:document-units="mm"><inkscape:page
       x="0"
       y="0"
       width="211.66667"
       height="211.66667"
       id="page2"
       margin="0"
       bleed="0" /></sodipodi:namedview><defs
     id="defs1" /><g
     inkscape:label="Layer 1"
     inkscape:groupmode="layer"
     id="layer1"><circle
       style="fill:#f1ab50;fill-opacity:1;stroke-width:0.264583"
       id="path8"
       cx="153.72452"
       cy="66.648071"
       r="44.482166" /><path
       style="fill:#5f7a52;fill-opacity:1"
       d="m 82.138506,241.25486 c 0.63102,-2.83111 1.70625,-23.29535 2.776849,-52.85052 0.94577,-26.10891 0.91327,-24.0974 0.4169,-25.80485 -0.4962,-1.70685 -7.544759,-18.03234 -9.951301,-23.04864 -1.79253,-3.73643 -2.56051,-4.51184 -6.089266,-6.14818 -2.66379,-1.23525 -7.6487,-2.48986 -7.6487,-1.92504 0,0.10451 1.07156,0.82439 2.38125,1.59975 1.30968,0.77535 2.38125,1.44985 2.38125,1.49889 0,0.049 -0.68461,-0.14783 -1.52136,-0.43748 -2.50478,-0.86707 -9.07169,-2.66072 -9.37331,-2.56019 -0.15432,0.0514 0.57046,0.7898 1.61062,1.64078 1.04016,0.85099 1.84643,1.59202 1.79172,1.64674 -0.0547,0.0547 -1.75484,-0.68784 -3.77806,-1.65011 -2.02321,-0.96228 -3.96419,-1.86064 -4.31328,-1.99635 -0.57926,-0.2252 -0.60376,-0.20558 -0.28053,0.22469 0.19479,0.2593 1.13525,1.29151 2.08991,2.29381 0.95466,1.0023 1.55715,1.72484 1.33887,1.60565 -0.80057,-0.43715 -6.77592,-4.45757 -7.71099,-5.18821 -0.53027,-0.41434 -1.03991,-0.75334 -1.13254,-0.75334 -0.0926,0 0.41231,0.8632 1.1221,1.91823 0.70978,1.05502 1.97499,2.98979 2.81156,4.29948 l 1.52104,2.38125 -1.41444,-1.38284 c -0.77794,-0.76056 -2.84319,-2.98515 -4.58944,-4.94354 -1.74625,-1.95838 -3.26381,-3.56853 -3.37236,-3.5781 -0.10855,-0.01 0.0496,0.60768 0.35152,1.37166 0.95135,2.40764 3.42394,9.83707 3.34884,10.06235 -0.079,0.23695 -2.85228,-4.81403 -4.86818,-8.86639 -0.70436,-1.4159 -1.38269,-2.57676 -1.5074,-2.57969 -0.12471,-0.003 -0.16283,0.16123 -0.0847,0.3648 0.12306,0.3207 0.30999,2.76101 0.83033,10.83985 0.0644,0.99949 0.0723,1.77253 0.0177,1.71786 -0.16949,-0.16949 -1.65033,-6.29409 -2.26213,-9.35596 -0.66505,-3.32832 -0.75818,-3.68983 -0.91118,-3.53683 -0.0609,0.0609 -0.29604,1.65556 -0.52245,3.5436 -0.59821,4.98845 -1.22337,8.93079 -1.48838,9.38594 -0.13637,0.2342 -0.24261,-2.47696 -0.2592,-6.61459 l -0.0281,-7.01146 -0.90463,2.64584 c -0.96398,2.81943 -4.11407,10.50747 -4.24974,10.3718 -0.0845,-0.0845 2.62948,-12.09284 2.94214,-13.01764 0.16512,-0.48838 0.15175,-0.49367 -0.17342,-0.0687 -0.19378,0.25326 -1.65597,2.77947 -3.2493,5.6138 -1.59334,2.83432 -2.93411,5.11618 -2.97949,5.07079 -0.11709,-0.11708 2.12713,-6.61159 3.22857,-9.34312 0.50814,-1.26017 0.89093,-2.32418 0.85065,-2.36446 -0.0403,-0.0403 -1.22505,1.2009 -2.63282,2.75818 -1.40777,1.55728 -3.5339,3.78392 -4.72474,4.94809 l -2.16516,2.11666 3.60946,-5.37336 c 1.9852,-2.95535 3.60946,-5.42685 3.60946,-5.49222 0,-0.0654 -1.23617,0.86437 -2.74705,2.06608 -2.51517,2.00049 -7.40911,5.60584 -8.36545,6.1628 -0.79501,0.463 1.88836,-2.47694 5.50231,-6.0284 2.03611,-2.00091 3.59342,-3.63802 3.46067,-3.63802 -0.13274,0 -1.40004,0.57989 -2.81623,1.28864 -4.0035,2.00362 -9.09562,4.31735 -9.2225,4.19047 -0.14749,-0.14748 6.13563,-4.81405 8.30127,-6.16547 0.9095,-0.56756 1.65364,-1.11026 1.65364,-1.206 0,-0.0957 -0.62507,-0.0138 -1.38906,0.1822 -1.66148,0.42615 -10.21159,1.76793 -10.54897,1.65547 -0.13018,-0.0434 2.41333,-1.0186 5.65224,-2.16712 3.2389,-1.14853 6.00203,-2.19003 6.14027,-2.31446 0.14051,-0.12646 -1.37642,-0.2267 -3.43958,-0.2273 -4.97932,-0.001 -10.7343097,-0.31062 -9.9086497,-0.53232 0.56813,-0.15254 3.9059797,-0.61485 11.1124997,-1.53914 0.94589,-0.12131 1.5412,-0.28512 1.32292,-0.36402 -0.21828,-0.0789 -1.52797,-0.46356 -2.91042,-0.85482 -3.0341,-0.85871 -9.2913597,-2.85577 -9.1962597,-2.93508 0.25864,-0.21565 11.4783497,1.23944 12.4592597,1.61585 0.97033,0.37235 0.36626,-0.36964 -0.68331,-0.83932 -1.13098,-0.50611 -9.72344,-6.09596 -9.72344,-6.32561 0,-0.0677 0.56555,0.1011 1.25677,0.375 5.90666,2.34056 8.26341,3.32195 9.61081,4.00212 0.86231,0.43529 1.56784,0.69513 1.56784,0.57742 0,-0.11771 -0.59537,-0.66806 -1.32305,-1.223 -0.72768,-0.55493 -2.9601,-2.61317 -4.96094,-4.57386 -2.61877,-2.56622 -3.3414,-3.39714 -2.57955,-2.96609 2.15138,1.21721 7.73723,5.02976 9.78958,6.68176 1.16417,0.93707 2.15717,1.66564 2.20667,1.61904 0.0495,-0.0466 -0.3875,-0.7189 -0.97112,-1.49401 -1.14772,-1.52434 -5.26962,-8.29039 -6.14784,-10.0916 l -0.53987,-1.107293 0.74171,0.83336 c 1.94267,2.182763 7.46636,8.830283 8.26615,9.947973 0.49445,0.69098 0.93487,1.22046 0.9787,1.17663 0.0438,-0.0438 -0.27376,-0.98998 -0.70577,-2.10255 -0.85029,-2.18978 -3.76227,-11.862053 -3.61544,-12.008873 0.0493,-0.0493 1.4346,2.64743 3.07837,5.992823 1.64378,3.34538 3.00515,6.08251 3.02527,6.08251 0.0201,0 0.009,-2.64914 -0.0241,-5.88698 l -0.0607,-5.886983 0.63535,3.175013 c 0.34943,1.74624 0.90395,4.9886 1.23226,7.20523 0.32831,2.21663 0.63855,3.98861 0.68942,3.93774 0.0509,-0.0509 0.26564,-1.68589 0.47725,-3.63336 0.21162,-1.94748 0.67118,-5.14821 1.02125,-7.11273 l 0.6365,-3.571893 0.0449,7.408343 0.0449,7.40833 0.86061,-2.51354 c 1.22971,-3.59155 3.9831,-9.974903 4.0817,-9.46285 0.0458,0.23788 -0.5281,3.06286 -1.27535,6.27776 -0.74726,3.21489 -1.31832,5.96626 -1.26903,6.11415 0.0493,0.1479 0.70851,-0.68853 1.4649,-1.85873 1.68307,-2.60383 6.51143,-9.27147 6.62888,-9.15403 0.12166,0.12167 -4.18099,8.89769 -5.50905,11.23665 l -1.1142,1.96233 2.48073,-2.23086 c 2.09907,-1.88765 6.75223,-5.89523 8.54785,-7.36192 0.48626,-0.39719 0.49264,-0.39127 0.13229,0.12275 -0.56128,0.80067 -5.43119,6.63014 -7.04589,8.43421 -0.77085,0.86126 -1.35144,1.61603 -1.29019,1.67727 0.0612,0.0613 0.98188,-0.39706 2.04585,-1.01846 1.06398,-0.6214 3.54374,-1.89357 5.51058,-2.82705 1.96684,-0.93348 3.60842,-1.72813 3.64796,-1.76588 0.16696,-0.15941 -2.36844,-5.85972 -2.72601,-6.12884 -0.21554,-0.16223 -1.10725,-1.88044 -1.98158,-3.818253 -0.87432,-1.93781 -1.65885,-3.59101 -1.74339,-3.673792 -0.0845,-0.0828 -0.11258,1.061952 -0.0623,2.543842 0.0503,1.481893 0.0188,2.553463 -0.0699,2.381263 -0.15614,-0.303 -0.60353,-1.896183 -2.37264,-8.449045 -0.46162,-1.70987 -0.9257,-3.10886 -1.03128,-3.10886 -0.10558,0 -0.2687,1.08102 -0.36248,2.40226 -0.19817,2.79183 -0.66773,4.07654 -0.7176,1.96337 -0.0326,-1.3812 -0.39193,-4.06565 -0.51352,-3.83646 -0.0386,0.0728 -0.20606,1.20386 -0.37213,2.51354 l -0.30193,2.38125 -0.33324,-2.46589 c -0.49293,-3.64748 -0.83075,-7.371073 -0.83848,-9.24192 -0.004,-0.909506 -0.0987,-1.653646 -0.21092,-1.653646 -0.11225,0 -0.53658,1.101328 -0.94295,2.447396 -0.90307,2.99134 -2.82645,8.45786 -3.0737,8.73587 -0.19462,0.21884 0.65313,-5.7772 1.69259,-11.97157 0.35358,-2.107057 0.60672,-3.867166 0.56253,-3.911352 -0.0442,-0.04419 -0.58984,0.786801 -1.21256,1.846638 -1.64089,2.792711 -5.97902,9.774204 -6.45836,10.393644 -0.32812,0.42403 -0.31147,0.24005 0.0838,-0.92604 0.48948,-1.44389 3.6859,-9.499956 4.77655,-12.038545 0.53827,-1.252884 0.26482,-1.021777 -5.16559,4.365625 -6.22966,6.18033 -6.27911,6.15574 -1.33059,-0.661458 1.16194,-1.600729 2.99957,-4.134022 4.08361,-5.629539 1.08403,-1.495517 1.92179,-2.768303 1.86168,-2.828414 -0.0601,-0.06011 -0.70182,0.259585 -1.42602,0.710436 -3.07589,1.914903 -13.35527,7.478009 -13.35527,7.227751 0,-0.172395 3.93496,-3.285826 8.67996,-6.867788 2.08185,-1.571564 3.74436,-2.898205 3.69447,-2.948089 -0.0499,-0.04989 -0.91977,0.210591 -1.93308,0.578834 -2.14359,0.778991 -13.40453,4.10369 -13.51734,3.990879 -0.10141,-0.101403 3.99504,-2.16168 9.65873,-4.857786 2.52909,-1.203935 4.67222,-2.269044 4.7625,-2.366909 0.0903,-0.09786 -0.43117,-0.103697 -1.15878,-0.01296 -2.18345,0.272287 -13.3386,1.005684 -13.9329,0.91602 -0.30355,-0.0458 2.46905,-0.787777 6.16133,-1.648844 7.70953,-1.797919 8.52135,-2.006174 8.37825,-2.14927 -0.0574,-0.05742 -2.53913,-0.520293 -5.51491,-1.02861 -6.3454,-1.083909 -11.92156,-2.203394 -12.13732,-2.436724 -0.17901,-0.193592 13.93587,0.1267 15.39191,0.349271 1.44371,0.220686 1.2142,-0.261712 -0.39688,-0.834168 -2.14829,-0.763342 -10.4189,-4.486876 -12.63385,-5.687919 -2.29143,-1.242515 -2.11858,-1.219775 4.10104,0.53952 8.03344,2.272356 9.35723,2.627017 9.80545,2.627017 0.24277,0 -0.51567,-0.684609 -1.68542,-1.521354 -2.51258,-1.797296 -8.4123,-6.469006 -10.10441,-8.001209 l -1.19062,-1.07811 1.71979,0.834584 c 2.32916,1.1303 10.7997,5.751231 11.72305,6.395267 0.40856,0.284973 0.78659,0.474381 0.84006,0.420907 0.0535,-0.05347 -0.49712,-0.810604 -1.22355,-1.68251 -1.62179,-1.946584 -8.19882,-11.825672 -8.00321,-12.021289 0.0778,-0.07779 2.52707,2.268259 5.44284,5.213434 2.91578,2.945175 5.35814,5.354864 5.42748,5.354864 0.0693,0 -0.1922,-0.565547 -0.5812,-1.256771 -0.63371,-1.126064 -5.42339,-12.098826 -5.42339,-12.424551 0,-0.07294 0.6287,0.743092 1.3971,1.813411 0.76841,1.070319 1.87575,2.600879 2.46077,3.401244 0.58502,0.800364 1.88009,2.736212 2.87793,4.301884 0.99784,1.565672 1.84466,2.815829 1.88183,2.778125 0.0372,-0.0377 -0.15893,-1.616363 -0.43577,-3.508134 -0.63903,-4.366885 -1.36259,-10.932803 -1.24399,-11.288603 0.0721,-0.216293 3.59856,10.372151 4.32203,12.977207 0.29615,1.066351 0.63846,0.0868 0.63633,-1.820896 -0.003,-2.272793 0.86824,-11.90625 1.07621,-11.90625 0.21142,0 1.307,9.877404 1.50694,13.586008 0.0851,1.57871 0.24382,2.709804 0.3527,2.513542 0.18696,-0.336998 1.83668,-5.839645 1.83668,-6.126241 0,-0.0738 -0.2679,-0.07927 -0.59532,-0.01215 -0.41571,0.08522 -0.35584,0.0098 0.19844,-0.249838 0.69233,-0.324355 0.90668,-0.71759 1.67751,-3.077456 0.48607,-1.488072 0.84325,-2.734522 0.79375,-2.76989 -0.0495,-0.03537 -0.86392,-0.251051 -1.8098,-0.479296 l -1.71979,-0.414991 2.02222,-0.02963 2.02222,-0.02964 0.42582,-0.992187 0.42581,-0.992188 -0.0668,0.926042 -0.0668,0.926042 2.64583,0.178212 c 1.45521,0.09802 3.5388,0.253934 4.63021,0.346483 1.24053,0.105195 1.88519,0.07518 1.71979,-0.08008 -0.14552,-0.136593 -3.09031,-1.356154 -6.54399,-2.710135 -3.45367,-1.353982 -6.2504,-2.490784 -6.21496,-2.526228 0.14834,-0.14834 10.57774,1.814238 12.86488,2.420879 1.36795,0.362835 2.52719,0.619688 2.5761,0.570784 0.0489,-0.0489 -1.12219,-0.914048 -2.60242,-1.922542 -2.31209,-1.57524 -10.41108,-7.624972 -11.19211,-8.360211 -0.63713,-0.599776 9.90644,4.568998 12.23698,5.998931 0.61846,0.379466 1.12283,0.593894 1.12081,0.476505 -0.002,-0.117389 -0.66943,-0.98734 -1.48315,-1.933226 -3.7198,-4.32398 -8.77468,-10.989716 -7.6141,-10.040504 2.58646,2.115398 6.50257,5.566769 8.50561,7.496216 1.34606,1.296611 2.44739,2.296915 2.44739,2.222897 0,-0.07402 -0.70727,-1.631009 -1.57172,-3.459982 -1.4477,-3.063009 -4.51369,-10.514681 -4.51369,-10.970192 0,-0.286888 1.50822,1.860534 4.94036,7.034109 1.67316,2.522118 3.10339,4.524392 3.17829,4.449498 0.0749,-0.07489 0.008,-0.5311 -0.14886,-1.013793 -0.5033,-1.549713 -2.44024,-11.861879 -2.4012,-12.783875 0.0156,-0.368547 2.7061,6.308024 3.865,9.591147 0.52651,1.491589 1.04896,2.711979 1.16099,2.711979 0.11203,0 0.21356,-1.518047 0.22562,-3.373437 0.0191,-2.9402 0.48555,-10.13159 0.66933,-10.319501 0.12393,-0.1267 1.24082,7.745591 1.53917,10.848667 0.1644,1.70987 0.38169,3.108855 0.48286,3.108855 0.10117,0 0.32212,-0.565547 0.49099,-1.256771 0.45334,-1.855616 3.546066,-11.97447 3.633236,-11.887297 0.14523,0.145232 -0.68336,9.342999 -1.07586,11.942643 -0.21882,1.449268 -0.347526,2.685355 -0.286026,2.74686 0.0615,0.0615 0.538586,-0.826604 1.060176,-1.973575 0.93149,-2.048333 5.703952,-10.224102 5.870772,-10.057286 0.1232,0.123202 -3.445472,10.526704 -4.405272,12.842377 -0.44683,1.078042 -0.76816,2.004334 -0.71407,2.058427 0.0541,0.05409 0.75507,-0.708878 1.55772,-1.695493 1.4811,-1.82056 3.849782,-4.273695 7.191732,-7.448141 1.8214,-1.730109 1.8383,-1.660369 0.20137,0.83103 -0.36049,0.548661 -0.60825,1.030858 -0.55057,1.071548 0.62032,0.437638 4.942909,1.789303 5.426499,1.696858 0.48112,-0.09197 0.57029,-0.04229 0.36596,0.203916 -0.20411,0.245939 0.79064,0.819214 4.06905,2.345002 2.38656,1.110717 4.439835,2.019485 4.562815,2.019485 0.12298,0 -1.030709,-1.279922 -2.563735,-2.844271 -3.94388,-4.024434 -9.329099,-9.85573 -9.101799,-9.85573 0.30885,0 5.586129,3.773584 8.458569,6.04841 1.45521,1.15245 2.695645,2.048754 2.756525,1.991788 0.0609,-0.05697 -0.24984,-0.609394 -0.690489,-1.227616 -0.44064,-0.618222 -1.988756,-3.148102 -3.440276,-5.621956 -3.23339,-5.510759 -3.39198,-5.803829 -3.01426,-5.570389 0.38046,0.23513 7.824525,8.396759 9.002122,9.869868 0.980249,1.226236 1.473609,1.468725 1.076629,0.529167 -0.64593,-1.528766 -3.817735,-13.4039447 -3.630215,-13.5914647 0.0555,-0.0555 1.501449,2.7649687 3.213265,6.2676497 1.71181,3.502678 3.14602,6.330442 3.18713,6.28392 0.0411,-0.04652 -0.0353,-2.569017 -0.16978,-5.605547 -0.13448,-3.036529 -0.20942,-6.2512227 -0.16653,-7.1437527 l 0.078,-1.622791 1.002864,4.1010397 c 0.55157,2.25558 1.20034,5.321439 1.4417,6.813029 0.24137,1.491588 0.5074,2.711979 0.59118,2.711979 0.0838,0 0.35476,-0.982266 0.60218,-2.182813 0.52117,-2.528784 2.5259,-9.9387237 2.84143,-10.5025547 0.12529,-0.22388 0.17349,0.10546 0.11614,0.793511 -0.30265,3.6307397 -0.67141,11.1572557 -0.55248,11.2761897 0.0765,0.07652 0.43181,-0.438268 0.78955,-1.143962 0.62769,-1.238205 4.5051,-7.484889 5.3695,-8.6505077 0.41425,-0.55861 0.41909,-0.55412 0.24035,0.22368 -0.10033,0.4365587 -0.88268,2.7527647 -1.73856,5.1471187 -0.85587,2.394356 -1.5207,4.38881 -1.47739,4.432123 0.0433,0.04331 0.86191,-0.72508 1.81911,-1.707539 0.9572,-0.982459 2.65952,-2.679258 3.78294,-3.770664 2.38533,-2.317349 2.30471,-2.120369 -1.50072,3.666874 -1.40096,2.130564 -2.50881,3.916836 -2.4619,3.969494 0.0469,0.05266 0.59785,-0.317508 1.22429,-0.822591 1.07144,-0.863877 5.24772,-3.703653 7.87786,-5.356769 l 1.18263,-0.743314 -1.09087,1.296799 c -0.59998,0.713239 -2.8288,3.006413 -4.95294,5.095941 -2.12414,2.089527 -3.86207,3.838147 -3.86207,3.885823 0,0.04767 1.10133,-0.433682 2.44739,-1.069683 3.02696,-1.430199 10.30132,-4.405807 10.43759,-4.269538 0.11076,0.110765 -7.37255,5.125552 -9.76862,6.546243 -1.54538,0.916288 -2.00331,1.49568 -0.93355,1.181163 1.04911,-0.308447 10.86593,-2.218277 12.23698,-2.380664 l 1.32292,-0.156687 -1.7198,0.69233 c -3.82497,1.539805 -10.88546,4.045449 -12.27674,4.356804 -0.81487,0.182362 -1.48159,0.431682 -1.48159,0.554047 0,0.122364 0.68461,0.220281 1.52135,0.217594 2.06773,-0.0066 13.57569,0.606453 13.4648,0.717345 -0.19663,0.196637 -11.05805,1.683307 -13.45618,1.841832 -2.68985,0.177809 -3.11578,0.433089 -1.2051,0.722293 1.32176,0.200066 14.29153,3.369275 14.17432,3.463548 -0.0842,0.06771 -8.94544,-0.498641 -12.51481,-0.799859 -1.16417,-0.09824 -2.05714,-0.120833 -1.98438,-0.0502 0.19601,0.190284 12.72965,5.908189 13.44754,6.134835 0.33839,0.106833 0.56982,0.239679 0.51428,0.295214 -0.12936,0.129359 -11.68417,-2.846943 -14.39648,-3.708264 -1.1309,-0.359127 -2.08221,-0.62693 -2.11403,-0.595117 -0.10186,0.101862 11.08905,8.340986 12.68359,9.338085 0.84476,0.528249 1.48435,1.012032 1.42131,1.075074 -0.17506,0.175057 -11.91937,-5.670404 -14.00361,-6.969971 -0.5457,-0.340258 -0.99218,-0.515707 -0.99218,-0.389887 0,0.125821 0.80806,1.169111 1.7957,2.318424 3.71592,4.324207 8.78763,10.417733 8.78763,10.558106 0,0.234603 -4.01688,-3.154957 -8.30365,-7.006859 -2.18379,-1.962253 -3.89657,-3.391507 -3.80618,-3.176119 0.57135,1.361482 5.55537,12.304498 6.00987,13.195394 0.30496,0.597765 0.50127,1.086845 0.43626,1.086845 -0.14876,0 -3.68586,-5.027035 -6.23652,-8.863542 -1.06423,-1.600729 -1.9772,-2.960026 -2.02883,-3.02066 -0.25874,-0.303875 -0.29767,0.239119 -0.0935,1.304232 0.12517,0.652994 0.48143,2.913668 0.79168,5.02372 0.31026,2.110052 0.74875,4.884569 0.97443,6.165594 0.22568,1.281024 0.35082,2.388644 0.27809,2.461377 -0.0727,0.07273 -0.65181,-1.332565 -1.28684,-3.122885 l -1.1546,-3.255128 -0.19223,3.571876 c -0.10572,1.964531 -0.27543,5.23875 -0.37712,7.276041 l -0.1849,3.704167 -0.5743,-2.979904 c -0.31587,-1.638948 -0.6445,-3.050098 -0.7303,-3.135891 -0.0858,-0.08579 -0.21701,0.243134 -0.2916,0.730946 -0.86871,5.68148 -1.37486,8.135881 -2.419974,11.73485 -1.24328,4.281382 -1.61286,5.258928 -1.35042,3.571875 0.26964,-1.733361 0.47961,-5.42463 0.29832,-5.244618 -0.0993,0.09864 -0.92711,2.003637 -1.83951,4.233333 -2.194166,5.362074 -3.946931,9.466561 -4.013931,9.399551 -0.0298,-0.0298 0.23522,-1.47817 0.58884,-3.218706 0.353616,-1.740533 0.596156,-3.288299 0.538976,-3.439479 -0.10476,-0.276956 -2.003166,3.580891 -2.729126,5.545965 -0.44134,1.19465 -0.51388,7.37158 -0.21907,18.653125 0.11911,4.55764 0.0869,6.36446 -0.10839,6.08542 -0.15287,-0.21828 -0.2797,-0.65774 -0.28192,-0.97658 -0.002,-0.31883 -0.10894,-0.64451 -0.23713,-0.72374 -0.12866,-0.0795 -0.28946,1.72087 -0.35895,4.01928 -0.0917,3.03171 -0.36269,5.54581 -0.99708,9.24957 l -0.87119,5.08624 0.54715,1.66063 c 0.85172,2.58505 3.88636,9.75906 5.784425,13.6746 l 1.719557,3.5473 0.50458,-0.82971 c 0.277509,-0.45635 0.819359,-1.45732 1.204109,-2.22438 1.79995,-3.58859 4.413314,-7.42083 8.709574,-12.77175 5.22256,-6.50461 7.80211,-10.19915 9.54738,-13.67419 1.29981,-2.58808 3.32104,-7.62477 3.05983,-7.62477 -0.0911,0 -1.57726,1.39898 -3.30257,3.10885 l -3.13691,3.10886 2.5262,-3.84585 c 2.92515,-4.4532 7.04931,-11.18897 6.92615,-11.31213 -0.0464,-0.0464 -1.67527,1.24194 -3.61977,2.86292 -1.94449,1.62098 -3.89263,3.20061 -4.3292,3.51029 -0.74775,0.53043 -0.73305,0.48697 0.25372,-0.75005 2.47531,-3.10305 5.19279,-6.27258 7.73627,-9.023223 1.4991,-1.62119 2.72564,-3.018922 2.72564,-3.106072 0,-0.0871 -0.98227,0.20429 -2.18281,0.64764 -6.37927,2.355842 -12.67837,4.523705 -12.79769,4.404372 -0.16562,-0.16562 2.9404,-1.92692 9.99063,-5.665292 2.93572,-1.55666 5.21026,-2.87276 5.05452,-2.92468 -0.15573,-0.0519 -2.34735,0.20488 -4.87026,0.57065 -4.98047,0.72206 -11.09212,1.34051 -11.59398,1.17322 -0.24478,-0.0816 13.03186,-3.79516 16.46573,-4.60558 1.25519,-0.29623 0.80375,-0.57196 -1.4552,-0.8888 -4.1622,-0.58379 -14.88674,-2.408911 -15.67657,-2.667863 -0.53588,-0.175693 2.19321,-0.215911 8.40052,-0.123795 5.05685,0.07504 9.19428,0.0697 9.19428,-0.01187 0,-0.182672 -2.97163,-1.542165 -5.29167,-2.420891 -2.50395,-0.948382 -11.90226,-4.941227 -11.82126,-5.022227 0.11586,-0.115867 12.92575,2.793171 14.28579,3.244209 0.70066,0.232359 1.31929,0.377097 1.37475,0.321638 0.15139,-0.151393 -4.47951,-3.478596 -9.33081,-6.703979 -2.36549,-1.572699 -4.25813,-2.902221 -4.20586,-2.954492 0.25374,-0.253739 13.13668,5.519935 15.71666,7.043646 0.76398,0.451201 1.38906,0.766427 1.38906,0.700503 0,-0.06593 -3.12539,-3.23532 -6.94531,-7.0431 -3.81992,-3.807781 -6.76672,-6.831128 -6.54844,-6.71855 1.09465,0.564563 8.64658,5.722301 10.84623,7.407636 1.38151,1.058499 2.54819,1.888199 2.59261,1.843778 0.0444,-0.04442 -0.44375,-0.838933 -1.08483,-1.765582 -0.64107,-0.926648 -1.9415,-2.994503 -2.88983,-4.595232 -0.94833,-1.600729 -2.58543,-4.339167 -3.63799,-6.085417 -1.05257,-1.74625 -2.15174,-3.591719 -2.44261,-4.101042 l -0.52886,-0.926042 1.02004,1.065377 c 2.41093,2.5181 9.98795,10.993853 10.61129,11.869932 0.37468,0.526607 0.71987,0.918839 0.76709,0.871626 0.0472,-0.04721 -0.49573,-1.684806 -1.20653,-3.639096 -1.6189,-4.45101 -4.35525,-13.200514 -4.18243,-13.37334 0.0712,-0.07118 0.7553,1.037656 1.52027,2.464082 0.76497,1.426427 2.07339,3.784128 2.9076,5.239336 0.83422,1.455209 2.07487,3.759576 2.75699,5.120817 0.68213,1.36124 1.27963,2.432803 1.32778,2.38125 0.0482,-0.05155 -0.0693,-0.867639 -0.26091,-1.813525 -0.19166,-0.945885 -0.53618,-4.160573 -0.7656,-7.14375 -0.22942,-2.983177 -0.48994,-6.376459 -0.57893,-7.540625 -0.089,-1.164167 -0.10507,-2.057136 -0.0357,-1.984375 0.2091,0.219372 2.50636,8.112968 3.38927,11.645868 0.45402,1.8167 0.91655,3.399073 1.02784,3.516385 0.1113,0.117312 0.28113,-0.597063 0.37742,-1.5875 0.25983,-2.672697 1.7826,-13.644872 1.95741,-14.10392 0.21184,-0.556284 0.76986,5.366659 1.00366,10.65299 0.10789,2.439405 0.24439,4.38705 0.30334,4.328101 0.059,-0.05895 0.56101,-1.399983 1.11568,-2.980073 0.55468,-1.580091 1.80485,-4.837424 2.77816,-7.238518 1.97167,-4.863966 1.95392,-4.918101 0.7805,2.38125 -0.57322,3.565769 -1.1391,6.475016 -1.82699,9.392709 -0.14639,0.62094 0.0695,0.419329 0.9917,-0.926042 0.99435,-1.450631 8.48825,-11.503265 8.87572,-11.90625 0.43647,-0.453956 -0.65245,1.990448 -3.38864,7.606771 -1.71921,3.52888 -3.03623,6.416146 -2.9267,6.416146 0.10953,0 0.48779,-0.312238 0.84057,-0.693862 1.62154,-1.754074 10.84388,-9.78887 10.44008,-9.095722 -0.53328,0.915393 -6.7522,9.081885 -8.91307,11.704368 -1.28743,1.562454 -2.34078,2.900428 -2.34078,2.973276 0,0.07285 0.62508,-0.267403 1.38906,-0.756113 2.33774,-1.495417 16.18026,-8.335676 15.41198,-7.615803 -0.50281,0.471132 -11.91007,8.951516 -13.07761,9.722154 -1.50924,0.996185 -0.98865,1.097614 1.86823,0.363994 3.18026,-0.816663 11.43454,-2.628869 11.53166,-2.531748 0.1026,0.102599 -8.15379,3.955774 -11.70597,5.463058 -1.45157,0.615943 -2.68819,1.162996 -2.74804,1.215674 -0.0598,0.05268 3.57156,0.03739 8.06979,-0.03398 4.73714,-0.07516 7.84461,-0.03442 7.38486,0.0968 -0.89794,0.256298 -2.34436,0.569119 -10.58334,2.288884 -3.20145,0.668257 -6.05896,1.310591 -6.35,1.427408 -0.38071,0.152811 0.10175,0.302331 1.71979,0.532982 13.67097,1.948779 14.18283,2.037021 12.8323,2.212213 -0.72761,0.09439 -4.87056,0.253317 -9.20656,0.353181 -4.33601,0.09986 -7.78882,0.262167 -7.67292,0.360674 0.1159,0.09851 2.36211,1.101978 4.99158,2.229928 4.44855,1.90828 12.81322,5.91256 11.62331,5.56424 -0.29104,-0.0852 -3.2676,-0.85668 -6.61458,-1.7144 -3.34698,-0.85772 -6.78956,-1.802 -7.65018,-2.09841 -0.86062,-0.2964 -1.60013,-0.50356 -1.64334,-0.46035 -0.0432,0.0432 2.62546,2.11883 5.93039,4.61248 3.30493,2.493652 6.42568,4.903322 6.93501,5.354822 l 0.92604,0.820933 -1.98438,-0.964193 c -1.0914,-0.5303 -4.90677,-2.49877 -8.47859,-4.374382 -3.57182,-1.8756 -6.58738,-3.41019 -6.70125,-3.41019 -0.11386,0 0.30822,0.57894 0.93797,1.28653 7.13237,8.014005 11.33146,12.873795 11.33146,13.114455 0,0.28515 -8.70245,-6.773783 -11.47338,-9.306563 -0.85333,-0.779982 -1.60435,-1.365312 -1.66893,-1.300722 -0.0646,0.0646 0.22718,0.69594 0.64836,1.403012 2.27887,3.825713 7.96093,14.673083 7.3952,14.117873 -0.58871,-0.57775 -4.53935,-5.58205 -7.51876,-9.52406 -1.41874,-1.877123 -2.61805,-3.374413 -2.66514,-3.327323 -0.0471,0.0471 0.094,0.84456 0.31356,1.77215 1.03999,4.393873 3.0611,13.814993 2.98094,13.895163 -0.0943,0.0943 -3.63205,-7.78571 -4.82782,-10.75343 -0.38112,-0.94588 -0.80156,-1.83289 -0.93432,-1.97113 -0.14612,-0.15215 -0.24138,0.79689 -0.24138,2.40463 0,5.27982 -0.35466,14.68531 -0.54072,14.33983 -0.10471,-0.19445 -0.3858,-1.54416 -0.62463,-2.99937 -0.6591,-4.01592 -0.96855,-5.42396 -1.19206,-5.42396 -0.11177,0 -0.35227,1.0418 -0.53445,2.31511 -0.18217,1.27331 -0.7283,4.16057 -1.21361,6.41614 -0.48532,2.25558 -0.96727,4.85525 -1.071,5.77706 -0.23283,2.06894 -0.53163,1.6843 -0.76557,-0.9855 -0.097,-1.10738 -0.24135,-2.23691 -0.32069,-2.51005 -0.0877,-0.30202 -0.928,1.8493 -2.1443,5.49004 -1.10003,3.29266 -2.02829,5.95692 -2.06282,5.92058 -0.0345,-0.0363 0.0507,-1.18947 0.1893,-2.5625 0.13864,-1.37302 0.21652,-2.77423 0.17308,-3.11378 -0.0545,-0.42572 -1.43415,2.0035 -4.44462,7.82572 -2.40109,4.64369 -4.39335,8.41825 -4.42724,8.38792 -0.0339,-0.0303 0.0597,-0.46399 0.20805,-0.96367 0.61686,-2.07814 0.98258,-3.95123 0.77149,-3.95123 -0.12418,0 -1.255,1.8157 -2.51294,4.0349 -2.39023,4.21673 -7.58229,12.67286 -7.70549,12.54966 -0.0392,-0.0392 0.28663,-1.18441 0.72412,-2.54485 0.4375,-1.36044 0.75861,-2.66479 0.71359,-2.89856 -0.0942,-0.48902 -3.54992,5.1741 -4.58354,7.51129 -0.38068,0.86079 -1.00795,2.70137 -1.39392,4.09017 -0.68499,2.46469 -0.70028,2.68652 -0.63899,9.27197 0.17729,19.05004 2.15403,54.02314 3.90317,69.05625 0.21165,1.81901 0.3859,3.39659 0.38722,3.50573 10e-4,0.10914 -5.41721,0.19844 -12.04118,0.19844 H 82.005856 Z m -5.97692,-122.2375 c 0.18942,-1.92815 0.51093,-5.1726 0.71447,-7.20989 0.50079,-5.0127 0.75809,-16.642555 0.42925,-19.402695 -0.22483,-1.88722 -0.48408,-2.63985 -1.799982,-5.22552 -0.84553,-1.661416 -1.61113,-3.020754 -1.70134,-3.020754 -0.0902,0 -0.007,0.982266 0.18532,2.182814 0.19213,1.20055 0.32055,2.25658 0.28536,2.34675 -0.0352,0.0902 -1.07601,-2.37967 -2.31293,-5.488506 -1.23693,-3.108839 -2.338256,-5.653156 -2.447396,-5.654038 -0.10914,-8.82e-4 -0.21225,0.921131 -0.22913,2.048917 -0.0169,1.127787 -0.0839,1.812396 -0.14884,1.521355 -0.52223,-2.339026 -2.53147,-10.07587 -2.675,-10.300466 -0.20013,-0.313174 -0.51828,1.442897 -0.59587,3.289007 l -0.05,1.190625 -0.21891,-1.058333 c -0.1204,-0.582084 -0.22577,-1.554873 -0.23416,-2.161754 l -0.0153,-1.10342 -1.65364,-0.145945 c -0.90951,-0.08027 -3.02287,-0.212612 -4.69636,-0.294094 -3.19683,-0.155653 -7.74666,-0.595773 -8.53281,-0.825407 -0.25466,-0.07439 -0.46302,-0.02672 -0.46302,0.105929 0,0.132647 3.15225,1.770759 7.00501,3.640248 3.85276,1.86949 6.97586,3.428224 6.94023,3.463854 -0.12986,0.129861 -7.31874,-1.720245 -10.2975,-2.650128 -1.68314,-0.525429 -3.16003,-0.955325 -3.28199,-0.955325 -0.12195,0 0.24912,0.386953 0.82461,0.859896 1.11778,0.918603 9.52237,8.453643 10.18672,9.13279 0.7551,0.771913 -5.24698,-2.736704 -9.64706,-5.639356 -0.92925,-0.613011 -0.95769,-0.669176 1.50826,2.978814 1.00454,1.486064 2.90927,3.846098 4.23274,5.244517 2.65915,2.80977 2.78307,2.77268 -1.23717,0.37028 -0.65035,-0.38864 -0.95706,-0.47753 -0.81578,-0.23643 0.5464,0.93244 3.66303,4.78686 5.32914,6.59067 l 1.8205,1.97097 -1.32292,-0.89607 c -0.7276,-0.49284 -1.94291,-1.35001 -2.70068,-1.90483 -0.75777,-0.55481 -1.44646,-1.00875 -1.53043,-1.00875 -0.084,0 0.96802,1.63711 2.33775,3.63802 3.06334,4.474972 3.8056,5.943425 7.05434,13.955975 3.3186,8.18485 4.101316,9.88692 4.972306,10.81261 0.77228,0.82078 3.99351,3.3434 4.26931,3.3434 0.0927,0 0.323462,-1.57758 0.512882,-3.50573 z m -17.164438,2.43909 c 0,-0.47657 -0.61945,-0.51972 -2.11666,-0.14745 l -1.45521,0.36183 1.78593,0.0292 c 1.06938,0.0175 1.78594,-0.0802 1.78594,-0.24363 z m -0.87964,-1.38075 c -0.0784,-0.18191 -0.52077,-1.2237 -0.9831,-2.31511 -0.46233,-1.09141 -0.9355,-2.08626 -1.05149,-2.21079 -0.11599,-0.12453 -1.85922,0.42738 -3.87385,1.22646 -2.01463,0.79908 -4.13921,1.59996 -4.72129,1.77973 -0.58209,0.17977 -1.15167,0.41177 -1.26575,0.51554 -0.27985,0.25457 3.77033,0.8441 7.35116,1.07001 4.7129,0.29732 4.70088,0.2975 4.54432,-0.0658 z m -10.49744,-3.37009 c 1.81901,-0.40913 4.37885,-0.95015 5.68854,-1.20227 1.30969,-0.25212 2.41769,-0.48906 2.46223,-0.52652 0.0445,-0.0375 -0.29718,-1.15104 -0.75937,-2.47461 -0.54554,-1.56226 -0.94523,-2.34429 -1.13931,-2.22918 -0.16443,0.0975 -2.0849,1.44685 -4.26772,2.99849 -2.18281,1.55164 -4.47476,3.15273 -5.09323,3.55799 -1.16816,0.76544 -1.46102,1.12133 -0.66145,0.80383 0.25466,-0.10112 1.9513,-0.5186 3.77031,-0.92773 z M 85.283475,74.028006 c 2.09765,-3.259738 2.68832,-4.512216 3.60251,-7.638912 0.83417,-2.852986 2.1922,-8.975248 2.02743,-9.140018 -0.0523,-0.05226 -0.97425,0.946793 -2.04887,2.220121 -1.07462,1.273328 -2.16064,2.557063 -2.41337,2.852744 -0.25273,0.29568 0.40444,-1.188805 1.46038,-3.298857 1.79427,-3.585433 4.29649,-8.889812 4.61802,-9.789584 0.078,-0.218281 -1.00712,0.733466 -2.41137,2.114993 -1.40426,1.381528 -2.50096,2.647974 -2.43713,2.814324 0.0713,0.185931 -0.078,0.251708 -0.38764,0.170733 -0.33308,-0.0871 -0.97204,0.259137 -1.88628,1.022135 -1.433409,1.196297 -1.465079,1.05944 -0.14703,-0.635353 l 0.77417,-0.995461 -1.41388,-0.632007 c -0.777639,-0.347604 -2.842639,-1.255111 -4.588889,-2.016683 -1.74625,-0.761571 -3.87166,-1.733647 -4.723132,-2.160169 -0.85147,-0.426521 -1.6184,-0.705221 -1.70429,-0.619332 -0.0859,0.08589 0.43881,0.778294 1.166,1.538678 2.032182,2.124966 8.106572,8.712161 8.701002,9.435553 0.78609,0.956636 -2.12451,-1.119537 -6.70477,-4.782601 -2.130822,-1.70412 -3.900372,-3.072236 -3.932352,-3.040259 -0.032,0.03198 0.87667,2.434051 2.01922,5.337941 2.615492,6.647486 2.716342,7.040912 1.197232,4.670393 -0.681062,-1.062778 -1.283692,-1.886923 -1.339182,-1.831433 -0.2388,0.238796 1.626792,5.096187 3.173072,8.261674 1.66085,3.400026 5.3981,9.0512 5.73088,8.665793 0.0946,-0.10952 0.845289,-1.245506 1.668269,-2.524413 z M 65.046538,68.61423 c -0.31432,-3.333134 -0.51336,-4.385092 -0.77936,-4.119093 -0.13432,0.134324 -0.59666,1.250015 -1.02741,2.479315 l -0.78319,2.23509 0.16187,-2.353499 0.16187,-2.3535 -0.7671,0.167559 c -0.62127,0.135703 -7.44241,1.27284 -11.74732,1.958366 l -0.92604,0.147466 0.79375,0.221926 c 0.43656,0.122059 3.88159,0.939645 7.65561,1.816858 3.77402,0.877213 6.91926,1.65233 6.98941,1.722482 0.3797,0.379698 0.44253,-0.07128 0.26791,-1.92297 z m -4.39149,-7.23917 c 0.40253,-1.20678 0.69675,-2.299498 0.65383,-2.428262 -0.0974,-0.292093 -4.18523,1.791608 -4.60011,2.344808 -0.196,0.261349 -0.33929,0.299513 -0.40332,0.107425 -0.0629,-0.188762 -1.21187,0.156181 -3.13557,0.941372 -1.66995,0.681618 -3.0916,1.291352 -3.15924,1.354965 -0.0676,0.06361 2.13503,0.06125 4.8948,-0.0053 l 5.01775,-0.120912 z m 2.25536,-0.223914 c 0.0422,-1.376181 -0.003,-2.422661 -0.0998,-2.325511 -0.16701,0.167015 -2.22592,4.695818 -2.22592,4.896173 0,0.05181 0.50602,0.05759 1.12448,0.01284 l 1.12448,-0.08136 z m -11.96766,-0.836621 c 0.89544,-0.225474 1.36412,-0.552198 1.96584,-1.370415 0.43455,-0.590896 0.75256,-1.111887 0.70669,-1.157757 -0.0459,-0.04587 -1.07779,0.570816 -2.29316,1.370415 -2.29737,1.511455 -2.34354,1.65234 -0.37937,1.157757 z m 4.22817,-1.02915 c 2.30669,-0.516939 2.34309,-0.553427 4.20431,-4.213689 0.9668,-1.901315 1.69641,-3.456936 1.62136,-3.456936 -0.075,0 -0.64471,0.565547 -1.26592,1.256771 -0.6212,0.691224 -2.3203,2.48466 -3.77576,3.985414 -3.20783,3.307643 -3.0195,3.083424 -2.40286,2.860799 0.27941,-0.100876 1.0079,-0.295438 1.61887,-0.432359 z m -7.66991,-0.763441 c 0.13824,-0.130112 1.729,-1.029422 3.53501,-1.998468 1.80601,-0.969046 3.61033,-2.02345 4.00959,-2.343121 1.02383,-0.819721 5.27163,-5.707516 4.47467,-5.148851 -0.78308,0.548944 -3.10257,1.862822 -5.78119,3.274765 -1.55691,0.820672 -2.45855,1.575833 -4.46576,3.740262 -1.38324,1.491589 -2.40444,2.711979 -2.26933,2.711979 0.13511,0 0.35876,-0.106455 0.49701,-0.236566 z m 13.43736,-0.276192 c 0.58727,-0.223278 1.48895,-1.966099 1.17805,-2.276997 -0.0597,-0.05966 -0.69212,0.484101 -1.40548,1.208352 -1.29768,1.317488 -1.23251,1.623712 0.22743,1.068645 z m -11.20163,-6.050209 c 1.54814,-1.223326 5.15676,-4.814117 4.83802,-4.814117 -0.25743,0 -5.34698,2.001791 -5.48886,2.158844 -0.0448,0.04956 -0.57537,1.077441 -1.1791,2.284173 l -1.0977,2.194058 0.86851,-0.441069 c 0.47767,-0.242587 1.40428,-0.864437 2.05913,-1.381889 z m 37.873107,-0.514637 c 0.61199,-0.836745 2.28667,-2.97987 3.72151,-4.7625 1.43483,-1.782631 2.549365,-3.241146 2.476725,-3.241146 -0.252429,0 -4.781255,2.989278 -4.868915,3.213744 -0.0485,0.124211 -0.35689,0.225839 -0.6853,0.225839 -0.3284,0 -2.04435,0.636707 -3.81321,1.414905 l -3.216119,1.414904 2.4462,1.604337 c 1.345409,0.882386 2.531749,1.614898 2.636299,1.627804 0.10455,0.01291 0.69081,-0.661142 1.30281,-1.497887 z m -42.867877,0.132291 c 0.31472,-0.618463 1.5673,-2.630502 2.7835,-4.471197 1.2162,-1.840695 2.21127,-3.42775 2.21127,-3.526788 0,-0.2419 -3.44993,0.128522 -4.0349,0.433229 -0.25466,0.132653 -0.46302,0.522822 -0.46302,0.867044 0,0.66798 -0.93695,6.231395 -1.2171,7.226879 -0.26993,0.959176 0.10185,0.686029 0.72025,-0.529167 z m 37.803928,-3.395202 c 0.87029,-0.594055 1.64446,-1.180599 1.72037,-1.303432 0.0759,-0.122834 -0.54819,-0.296354 -1.3869,-0.385601 -0.83871,-0.08925 -3.12001,-0.457539 -5.06956,-0.818425 -1.94955,-0.360887 -3.587912,-0.612886 -3.640802,-0.559998 -0.10173,0.101735 6.248712,4.068552 6.593122,4.1184 0.11078,0.01604 0.91348,-0.45689 1.78377,-1.050944 z M 57.506488,47.424981 c 1.13457,-0.776404 2.01528,-1.459228 1.95712,-1.517385 -0.0582,-0.05816 -0.87151,0.19182 -1.80745,0.555505 -1.27393,0.495017 -1.85137,0.892165 -2.29703,1.57982 -1.00727,1.554236 -1.04112,1.563977 2.14736,-0.61794 z m 0.69691,-3.971966 c 0.53404,-0.249175 0.15178,-0.280509 -1.98437,-0.16266 -4.94054,0.272566 -4.71865,0.186677 -5.51936,2.136435 -0.38409,0.935286 -0.69835,1.749874 -0.69835,1.810195 0,0.06032 1.69664,-0.696954 3.77031,-1.682833 2.07367,-0.98588 4.06797,-1.931391 4.43177,-2.101137 z m 29.191927,1.718488 c 0.60658,-0.487848 2.44876,-1.810933 4.09375,-2.94019 1.644986,-1.129256 2.945515,-2.098575 2.890045,-2.154042 -0.0555,-0.05547 -1.204569,0.186695 -2.553545,0.538139 -1.34898,0.351443 -2.88762,0.590495 -3.4192,0.531226 -0.76867,-0.0857 -0.83112,-0.06418 -0.30506,0.105118 0.63874,0.205567 0.62954,0.219076 -0.26784,0.393337 -0.51112,0.09925 -2.47565,0.358739 -4.365629,0.576636 -1.88998,0.217897 -3.79351,0.470935 -4.23007,0.562306 l -0.79375,0.16613 0.66146,-0.563941 0.66146,-0.563941 -0.74483,0.266026 c -0.40966,0.146314 -1.30263,0.277894 -1.98438,0.2924 -2.970822,0.06321 -2.571472,0.33672 2.91285,1.994999 2.95494,0.893475 5.590689,1.637615 5.857239,1.653646 0.26655,0.01603 0.98093,-0.370001 1.5875,-0.857849 z M 47.487778,42.601805 c 3.62092,-0.953677 3.7852,-1.028117 4.37507,-1.982543 0.31904,-0.516228 0.53673,-0.975679 0.48375,-1.021003 -0.0747,-0.06392 -4.32159,-0.85019 -5.63736,-1.043709 -0.13715,-0.02017 -0.33888,0.558637 -0.44828,1.286241 -0.1094,0.727604 -0.27047,1.70987 -0.35793,2.182813 -0.17955,0.970879 -0.0649,1.012694 1.58475,0.578201 z m 8.27567,-1.739799 c 0.76807,-0.09338 1.4468,-0.251169 1.50828,-0.350647 0.0994,-0.160764 -4.3679,-0.883152 -4.52011,-0.730936 -0.0338,0.0338 -0.1482,0.407054 -0.25421,0.829455 l -0.19276,0.768003 1.03115,-0.173048 c 0.56713,-0.09518 1.65957,-0.249449 2.42765,-0.342827 z m 26.384748,-0.888923 c -0.1,-0.161746 0.30965,-0.264584 1.05387,-0.264584 2.033639,0 9.335689,-1.726298 10.006615,-2.365694 0.11692,-0.111422 -0.776046,-0.271422 -1.984366,-0.355555 -1.9471,-0.135573 -2.67841,-0.03755 -6.43029,0.861873 -2.328329,0.558163 -4.916599,1.09935 -5.751689,1.202638 -0.89876,0.111161 -1.45204,0.295108 -1.35584,0.450769 0.0924,0.149447 0.60708,0.191887 1.19229,0.09831 1.16151,-0.185732 2.41454,0.04302 2.19363,0.400469 -0.0803,0.129997 0.16563,0.236359 0.54661,0.236359 0.39442,0 0.62227,-0.113929 0.52917,-0.264583 z m 0.64348,-3.616028 c 3.541859,-0.186403 3.543949,-0.367115 0.01,-0.866002 -2.10549,-0.297231 -2.35404,-0.280553 -3.70417,0.248549 -1.98132,0.776463 -2.30544,1.171595 -0.78578,0.957951 0.65484,-0.09206 2.67082,-0.245286 4.47994,-0.340498 z m 7.384999,-1.840383 c 1.7963,-0.08579 3.165516,-0.240038 3.042706,-0.342766 -0.1228,-0.102728 -1.512396,-0.692427 -3.087986,-1.310442 l -2.86471,-1.123664 -3.220709,1.557223 -3.2207,1.557222 3.04271,-0.09079 c 1.673489,-0.04994 4.512399,-0.160987 6.308689,-0.246781 z M 78.311736,33.426021 c 1.67349,-0.49963 4.09777,-1.129363 5.3873,-1.399404 1.289529,-0.270042 2.383069,-0.529458 2.430089,-0.576479 0.047,-0.04702 -1.16751,-0.511478 -2.698959,-1.032125 l -2.78444,-0.94663 -3.01589,2.360535 c -3.033682,2.374462 -3.841802,3.141362 -2.867242,2.720973 0.27854,-0.120147 1.875652,-0.627239 3.549142,-1.12687 z m -0.52917,-4.816036 c 0,-0.12896 -0.14883,-0.2932 -0.33073,-0.364979 -0.1819,-0.07178 0.0999,-0.122538 0.62612,-0.112798 0.72101,0.01334 1.5138,-0.334692 3.21643,-1.412009 1.24277,-0.786344 2.20649,-1.51562 2.1416,-1.620612 -0.22449,-0.36323 -3.6339,-2.295609 -3.83309,-2.172507 -0.10997,0.06797 -1.05573,1.401048 -2.10169,2.962396 -1.04595,1.561348 -2.303502,3.390548 -2.794562,4.064888 -0.49106,0.67434 -0.89283,1.303047 -0.89283,1.397125 0,0.09408 0.89297,-0.431517 1.98438,-1.16799 1.091402,-0.736473 1.984372,-1.444555 1.984372,-1.573514 z m 15.081249,2.25439 c 0,-0.06208 -0.68461,-0.503235 -1.52135,-0.980345 -0.83675,-0.477109 -2.62987,-1.557409 -3.98471,-2.400668 -1.35485,-0.843258 -2.55921,-1.533196 -2.67636,-1.533196 -0.26713,0 -2.930079,2.153206 -2.930079,2.3692 0,0.08743 1.36539,0.439005 3.034199,0.781279 1.6688,0.342273 4.02029,0.893763 5.22552,1.225533 2.25605,0.621037 2.85278,0.733614 2.85278,0.538197 z"
       id="path7" /></g></svg>
